<?xml version="1.0" encoding="UTF-8" standalone="no"?>
<!DOCTYPE svg PUBLIC "-//W3C//DTD SVG 1.1//EN" "http://www.w3.org/Graphics/SVG/1.1/DTD/svg11.dtd">
<svg width="100%" height="100%" viewBox="0 0 1822 2063" version="1.1" xmlns="http://www.w3.org/2000/svg" xmlns:xlink="http://www.w3.org/1999/xlink" xml:space="preserve" xmlns:serif="http://www.serif.com/" style="fill-rule:evenodd;clip-rule:evenodd;stroke-linejoin:round;stroke-miterlimit:2;">
    <g transform="matrix(1,0,0,1,-1385,211)">
        <g id="Colors" transform="matrix(1,0,0,1,3356.5,0)">
            <g>
                <path d="M-773.746,336.983C-773.746,286.114 -815.046,244.814 -865.915,244.814L-1472.88,244.814C-1523.76,244.814 -1565.06,286.114 -1565.06,336.983L-1565.06,521.321C-1565.06,572.191 -1523.76,613.491 -1472.88,613.491L-865.915,613.491C-815.046,613.491 -773.746,572.191 -773.746,521.321L-773.746,336.983Z" style="fill:rgb(28,43,45);"/>
                <g transform="matrix(1,0,0,1,-4.97201,365.968)">
                    <path d="M-773.746,336.983C-773.746,286.114 -815.046,244.814 -865.915,244.814L-1472.88,244.814C-1523.76,244.814 -1565.06,286.114 -1565.06,336.983L-1565.06,521.321C-1565.06,572.191 -1523.76,613.491 -1472.88,613.491L-865.915,613.491C-815.046,613.491 -773.746,572.191 -773.746,521.321L-773.746,336.983Z" style="fill:rgb(31,111,139);"/>
                </g>
                <g transform="matrix(1,0,0,1,-3.67288,721.708)">
                    <path d="M-773.746,336.983C-773.746,286.114 -815.046,244.814 -865.915,244.814L-1472.88,244.814C-1523.76,244.814 -1565.06,286.114 -1565.06,336.983L-1565.06,521.321C-1565.06,572.191 -1523.76,613.491 -1472.88,613.491L-865.915,613.491C-815.046,613.491 -773.746,572.191 -773.746,521.321L-773.746,336.983Z" style="fill:rgb(153,168,178);"/>
                </g>
                <g transform="matrix(1,0,0,1,-5.19314,1078.11)">
                    <path d="M-773.746,336.983C-773.746,286.114 -815.046,244.814 -865.915,244.814L-1472.88,244.814C-1523.76,244.814 -1565.06,286.114 -1565.06,336.983L-1565.06,521.321C-1565.06,572.191 -1523.76,613.491 -1472.88,613.491L-865.915,613.491C-815.046,613.491 -773.746,572.191 -773.746,521.321L-773.746,336.983Z" style="fill:rgb(230,213,184);"/>
                </g>
                <g transform="matrix(2.51635,0,0,2.78262,1105.23,-673.381)">
                    <text x="-733.632px" y="412.844px" style="font-family:'Roboto-Medium', 'Roboto';font-weight:500;font-size:46.076px;fill:rgb(28,43,45);">1<tspan x="-707.214px -683.023px -656.605px -630.277px -603.859px " y="412.844px 412.844px 412.844px 412.844px 412.844px ">c2b2d</tspan></text>
                </g>
                <g transform="matrix(0.90431,0,0,1,73.6608,-0.663386)">
                    <text x="-889.141px" y="836.67px" style="font-family:'Roboto-Medium', 'Roboto';font-weight:500;font-size:128.211px;fill:rgb(31,111,139);">1<tspan x="-815.63px -771.605px -698.094px -654.069px -580.557px " y="836.67px 836.67px 836.67px 836.67px 836.67px ">f6f8b</tspan></text>
                </g>
                <g transform="matrix(0.90431,0,0,1,45.5492,5.1136)">
                    <text x="-867.483px" y="1195.58px" style="font-family:'Roboto-Medium', 'Roboto';font-weight:500;font-size:128.211px;fill:rgb(153,168,178);">9<tspan x="-793.972px -720.461px -650.08px -576.569px -503.308px " y="1195.58px 1195.58px 1195.58px 1195.58px 1195.58px ">9a8b2</tspan></text>
                </g>
                <g transform="matrix(0.90431,0,0,1,46.6091,21.3389)">
                    <text x="-864.495px" y="1535.4px" style="font-family:'Roboto-Medium', 'Roboto';font-weight:500;font-size:128.211px;fill:rgb(230,213,184);">e<tspan x="-796.743px -723.232px -649.971px -576.46px -503.2px " y="1535.4px 1535.4px 1535.4px 1535.4px 1535.4px ">6d5b8</tspan></text>
                </g>
                <g transform="matrix(0.90431,0,0,1,104.44,20.2965)">
                    <text x="-1774.03px" y="86.006px" style="font-family:'Roboto-Medium', 'Roboto';font-weight:500;font-size:128.211px;fill:rgb(73,84,100);">D<tspan x="-1687.5px -1617.12px -1571.46px -1503.71px -1391.57px -1318.31px -1245.05px " y="86.006px 86.006px 86.006px 86.006px 86.006px 86.006px 86.006px ">arkmode</tspan></text>
                </g>
            </g>
        </g>
    </g>
</svg>
