<?xml version="1.0" encoding="UTF-8" standalone="no"?>
<!DOCTYPE svg PUBLIC "-//W3C//DTD SVG 1.1//EN" "http://www.w3.org/Graphics/SVG/1.1/DTD/svg11.dtd">
<svg width="100%" height="100%" viewBox="0 0 1699 2448" version="1.1" xmlns="http://www.w3.org/2000/svg" xmlns:xlink="http://www.w3.org/1999/xlink" xml:space="preserve" xmlns:serif="http://www.serif.com/" style="fill-rule:evenodd;clip-rule:evenodd;stroke-linejoin:round;stroke-miterlimit:2;">
    <g transform="matrix(1,0,0,1,-6227,212)">
        <g id="Colors" transform="matrix(1,0,0,1,3356.5,0)">
            <g transform="matrix(1,0,0,1,4509.23,19.8739)">
                <g transform="matrix(1,0,0,0.935209,-4509.23,-12.8718)">
                    <path d="M4282.5,480.041C4282.5,274.747 4126.63,108.074 3934.63,108.074L3238.9,108.074C3046.91,108.074 2891.03,274.747 2891.03,480.041L2891.03,1684.91C2891.03,1890.21 3046.91,2056.88 3238.9,2056.88L3934.63,2056.88C4126.63,2056.88 4282.5,1890.21 4282.5,1684.91L4282.5,480.041Z" style="fill:rgb(75,75,75);"/>
                </g>
                <path d="M-773.746,336.983C-773.746,286.114 -815.046,244.814 -865.915,244.814L-1472.88,244.814C-1523.76,244.814 -1565.06,286.114 -1565.06,336.983L-1565.06,521.321C-1565.06,572.191 -1523.76,613.491 -1472.88,613.491L-865.915,613.491C-815.046,613.491 -773.746,572.191 -773.746,521.321L-773.746,336.983Z" style="fill:rgb(244,244,242);"/>
                <g transform="matrix(1,0,0,1,-4.97201,365.968)">
                    <path d="M-773.746,336.983C-773.746,286.114 -815.046,244.814 -865.915,244.814L-1472.88,244.814C-1523.76,244.814 -1565.06,286.114 -1565.06,336.983L-1565.06,521.321C-1565.06,572.191 -1523.76,613.491 -1472.88,613.491L-865.915,613.491C-815.046,613.491 -773.746,572.191 -773.746,521.321L-773.746,336.983Z" style="fill:rgb(232,232,232);"/>
                </g>
                <g transform="matrix(1,0,0,1,-3.67288,721.708)">
                    <path d="M-773.746,336.983C-773.746,286.114 -815.046,244.814 -865.915,244.814L-1472.88,244.814C-1523.76,244.814 -1565.06,286.114 -1565.06,336.983L-1565.06,521.321C-1565.06,572.191 -1523.76,613.491 -1472.88,613.491L-865.915,613.491C-815.046,613.491 -773.746,572.191 -773.746,521.321L-773.746,336.983Z" style="fill:rgb(187,191,202);"/>
                </g>
                <g transform="matrix(1,0,0,1,-5.19314,1078.11)">
                    <path d="M-773.746,336.983C-773.746,286.114 -815.046,244.814 -865.915,244.814L-1472.88,244.814C-1523.76,244.814 -1565.06,286.114 -1565.06,336.983L-1565.06,521.321C-1565.06,572.191 -1523.76,613.491 -1472.88,613.491L-865.915,613.491C-815.046,613.491 -773.746,572.191 -773.746,521.321L-773.746,336.983Z" style="fill:rgb(73,84,100);"/>
                </g>
                <g transform="matrix(2.51635,0,0,2.78262,1108.77,-673.381)">
                    <text x="-720.346px" y="412.844px" style="font-family:'Roboto-Medium', 'Roboto';font-weight:500;font-size:46.076px;fill:rgb(244,244,242);">f<tspan x="-704.525px -678.107px -662.285px -635.868px -620.046px " y="412.844px 412.844px 412.844px 412.844px 412.844px ">4f4f2</tspan></text>
                </g>
                <g transform="matrix(0.90431,0,0,1,71.846,-0.663386)">
                    <text x="-908.106px" y="836.67px" style="font-family:'Roboto-Medium', 'Roboto';font-weight:500;font-size:128.211px;fill:rgb(232,232,232);">e<tspan x="-840.354px -766.843px -699.092px -625.581px -557.829px " y="836.67px 836.67px 836.67px 836.67px 836.67px ">8e8e8</tspan></text>
                </g>
                <g transform="matrix(0.90431,0,0,1,47.1866,5.1136)">
                    <text x="-850.371px" y="1195.58px" style="font-family:'Roboto-Medium', 'Roboto';font-weight:500;font-size:128.211px;fill:rgb(187,191,202);">b<tspan x="-777.11px -703.849px -630.589px -588.225px -520.912px " y="1195.58px 1195.58px 1195.58px 1195.58px 1195.58px ">bbfca</tspan></text>
                </g>
                <g transform="matrix(0.90431,0,0,1,46.3382,21.3389)">
                    <text x="-867.325px" y="1535.4px" style="font-family:'Roboto-Medium', 'Roboto';font-weight:500;font-size:128.211px;fill:rgb(73,84,100);">4<tspan x="-793.814px -720.303px -646.792px -573.281px -499.77px " y="1535.4px 1535.4px 1535.4px 1535.4px 1535.4px ">95464</tspan></text>
                </g>
                <g transform="matrix(0.90431,0,0,1,-3905.92,-9.37575)">
                    <text x="2982.69px" y="-3.462px" style="font-family:'Roboto-Medium', 'Roboto';font-weight:500;font-size:128.211px;fill:rgb(73,84,100);">L<tspan x="3054.14px 3088.02px 3161.28px 3234.54px 3279.07px 3391.21px 3464.47px 3537.73px " y="-3.462px -3.462px -3.462px -3.462px -3.462px -3.462px -3.462px -3.462px ">ightmode</tspan></text>
                </g>
            </g>
        </g>
    </g>
</svg>
