<?xml version="1.0" encoding="UTF-8" standalone="no"?>
<!DOCTYPE svg PUBLIC "-//W3C//DTD SVG 1.1//EN" "http://www.w3.org/Graphics/SVG/1.1/DTD/svg11.dtd">
<svg width="100%" height="100%" viewBox="0 0 1028 1028" version="1.1" xmlns="http://www.w3.org/2000/svg" xmlns:xlink="http://www.w3.org/1999/xlink" xml:space="preserve" xmlns:serif="http://www.serif.com/" style="fill-rule:evenodd;clip-rule:evenodd;stroke-linejoin:round;stroke-miterlimit:2;">
    <rect id="Artboard1" x="0" y="0" width="1028" height="1028" style="fill:none;"/>
    <clipPath id="_clip1">
        <rect id="Artboard11" serif:id="Artboard1" x="0" y="0" width="1028" height="1028"/>
    </clipPath>
    <g clip-path="url(#_clip1)">
        <g transform="matrix(1.05529,0,0,1.02797,-42.8853,-24.9297)">
            <path d="M1013.23,275.355C1013.23,137.372 904.108,25.348 769.698,25.348L282.63,25.348C148.22,25.348 39.096,137.372 39.096,275.355L39.096,775.371C39.096,913.354 148.22,1025.38 282.63,1025.38L769.698,1025.38C904.108,1025.38 1013.23,913.354 1013.23,775.371L1013.23,275.355Z"/>
        </g>
        <g id="noun_Radio_1456262" transform="matrix(9.35663,0,0,9.35663,519.134,674.756)">
            <g transform="matrix(1,0,0,1,-50,-62.5)">
                <g>
                    <g id="Layer1">
                        <rect x="9.608" y="35.279" width="81.272" height="50.598"/>
                    </g>
                    <clipPath id="_clip2">
                        <rect x="6.283" y="31.588" width="87.6" height="79.496"/>
                    </clipPath>
                    <g clip-path="url(#_clip2)">
                        <path d="M93.8,40.6C93.8,35.663 89.737,31.6 84.8,31.6L26.9,31.6L69.5,14.1C70.313,13.827 70.864,13.061 70.864,12.204C70.864,11.107 69.961,10.204 68.864,10.204C68.565,10.204 68.27,10.271 68,10.4L16.4,31.6L15.2,31.6C10.263,31.6 6.2,35.663 6.2,40.6L6.2,80.7C6.2,85.637 10.263,89.7 15.2,89.7L84.8,89.7C89.737,89.7 93.8,85.637 93.8,80.7L93.8,40.6ZM89.8,80.8C89.8,83.543 87.543,85.8 84.8,85.8L15.2,85.8C12.457,85.8 10.2,83.543 10.2,80.8L10.2,40.6C10.2,37.857 12.457,35.6 15.2,35.6L84.8,35.6C87.543,35.6 89.8,37.857 89.8,40.6L89.8,80.8Z" style="fill:rgb(230,213,184);fill-rule:nonzero;"/>
                    </g>
                    <path d="M36.5,42C26.242,42 17.8,50.442 17.8,60.7C17.8,70.959 26.242,79.4 36.5,79.4C46.759,79.4 55.2,70.959 55.2,60.7C55.2,60.667 55.2,60.633 55.2,60.6C55.145,50.379 46.721,42 36.5,42ZM36.5,75.3C28.436,75.3 21.8,68.664 21.8,60.6C21.8,52.536 28.436,45.9 36.5,45.9C44.564,45.9 51.2,52.536 51.2,60.6C51.2,68.664 44.564,75.3 36.5,75.3Z" style="fill:rgb(230,213,184);fill-rule:nonzero;"/>
                    <path d="M79.8,58.6L65.8,58.6C64.703,58.6 63.8,59.503 63.8,60.6C63.8,61.697 64.703,62.6 65.8,62.6L79.8,62.6C80.897,62.6 81.8,61.697 81.8,60.6C81.8,59.503 80.897,58.6 79.8,58.6Z" style="fill:rgb(230,213,184);fill-rule:nonzero;"/>
                    <path d="M79.8,47.6L65.8,47.6C64.703,47.6 63.8,48.503 63.8,49.6C63.8,50.697 64.703,51.6 65.8,51.6L79.8,51.6C80.897,51.6 81.8,50.697 81.8,49.6C81.8,48.503 80.897,47.6 79.8,47.6Z" style="fill:rgb(230,213,184);fill-rule:nonzero;"/>
                    <path d="M79.8,69.6L65.8,69.6C64.703,69.6 63.8,70.503 63.8,71.6C63.8,72.697 64.703,73.6 65.8,73.6L79.8,73.6C80.897,73.6 81.8,72.697 81.8,71.6C81.8,70.503 80.897,69.6 79.8,69.6Z" style="fill:rgb(230,213,184);fill-rule:nonzero;"/>
                </g>
            </g>
        </g>
        <g id="noun_dart_3603242" transform="matrix(1.34657,0.00891464,-0.00891464,1.34657,679.974,429.314)">
            <g transform="matrix(1,0,0,1,-256,-320)">
                <g>
                    <path d="M496.824,143.164L393.957,137.275C383.64,136.689 375.311,128.36 374.725,118.043L368.836,15.176C368.596,10.966 365.066,7.632 360.849,7.632C358.278,7.632 355.859,8.871 354.357,10.957L256.836,146.363C242.644,165.862 243.653,192.76 259.266,211.141L82.943,382.354C82.004,383.266 81.304,384.394 80.902,385.639L64.663,436.022L9.976,490.71C8.476,492.21 7.633,494.246 7.633,496.367C7.633,500.756 11.244,504.367 15.633,504.367C17.754,504.367 19.79,503.524 21.29,502.024L75.978,447.337L126.361,431.1C127.616,430.695 128.752,429.986 129.667,429.037L300.518,251.786C318.894,267.803 346.109,269.055 365.878,254.793L501.036,157.647C503.125,156.145 504.367,153.724 504.367,151.151C504.367,146.935 501.033,143.405 496.824,143.164ZM174.642,359.321L152.467,337.147L318.287,176.133C320.499,173.983 323.466,172.779 326.551,172.779C333.056,172.779 338.409,178.132 338.409,184.637C338.409,187.706 337.217,190.659 335.087,192.868L174.642,359.321ZM119.542,416.485L84.088,427.912L95.52,392.443L140.986,348.3L163.535,370.849L119.542,416.485ZM356.542,241.801C343.017,251.554 324.461,250.913 311.642,240.248L346.608,203.972C351.624,198.78 354.43,191.836 354.43,184.617C354.43,169.335 341.855,156.76 326.573,156.76C319.319,156.76 312.344,159.593 307.145,164.653L270.792,199.953C260.582,187.144 260.183,168.958 269.822,155.714L354.151,38.62L358.751,118.957C359.799,137.353 374.648,152.202 393.044,153.25L473.344,157.85L356.542,241.801Z" style="fill:rgb(230,213,184);fill-rule:nonzero;"/>
                    <path d="M326.83,171.999C328.569,170.908 330.364,169.914 331.682,169.493C334.728,168.522 336.992,169.503 338.213,170.685C339.129,171.572 339.708,172.659 339.905,173.848C341.361,175.545 341.245,178.034 341.231,178.116C341.201,178.298 340.91,180.207 339.263,181.384C339.508,181.616 339.745,181.86 339.977,182.116C340.166,182.324 342.804,185.785 339.804,189.052C338.821,190.123 333.637,195.223 333.229,195.632C330.758,198.109 328.56,200.674 326.467,203.361C326.341,203.835 326.091,204.501 325.598,205.23C325.135,205.915 324.038,207.177 323.559,207.758C322.844,208.624 321.138,209.879 320.721,210.056C319.7,210.491 318.815,210.53 318.112,210.434C315.861,212.33 313.458,214.649 311.003,217.158C310.986,217.627 310.906,218.135 310.742,218.682C310.417,219.771 309.123,221.99 307.182,224.509C303.827,228.865 298.5,234.834 297.176,236.461C290.144,245.104 281.855,252.907 274.299,261.099C272.971,262.539 269.062,267.49 265.812,270.418C265.342,270.841 264.871,271.224 264.405,271.566C260.37,276.785 256.287,281.965 252.103,287.071C248.637,292.093 245.848,296.031 245.075,297.061C242.724,300.19 240.161,303.159 237.815,306.282C234.251,311.023 232.736,312.931 232.474,313.203C230.239,315.517 227.96,314.703 227.527,314.585C226.389,314.276 225.489,313.646 224.809,312.72C224.313,312.045 223.837,311.1 223.837,309.758C223.837,309.636 223.84,309.513 223.846,309.388C221.15,312.472 216.926,317.202 215.462,318.174C215.035,318.457 214.62,318.674 214.219,318.833C213.033,320.181 211.86,321.542 210.705,322.918C209.722,324.087 192.582,344.312 184.781,352.431C182.866,354.423 181.365,355.773 180.617,356.27C179.986,356.69 179.405,356.932 178.911,357.069C179.193,357.919 179.316,359.098 178.816,360.649C177.763,363.911 175.008,367.721 171.552,371.38C167.211,375.976 161.801,380.463 158.889,383.372C154.754,387.502 150.459,391.504 146.198,395.502C146.155,395.542 146.112,395.582 146.068,395.62L138.703,402.058C135.394,406.307 131.919,410.417 128.1,414.228C125.682,416.641 123.378,419.009 121.277,421.628C121.096,421.958 120.242,423.487 119.789,424.024C119.059,424.887 118.234,425.42 117.477,425.722C115.661,426.448 113.747,426.418 111.829,424.7C111.428,424.341 109.832,422.655 110.22,420.185C109.505,420.522 108.789,420.842 108.072,421.145C106.378,421.861 100.115,425.645 94.259,428.336C93.825,428.618 93.39,428.801 92.969,428.913C90.79,429.862 88.72,430.61 87.03,430.933C83.397,431.629 80.678,430.659 79.125,429.106C77.081,427.062 76.32,424.566 76.725,421.703L76.786,421.345C76.017,419.756 75.765,417.397 77.243,414.507C79.077,410.922 84.477,404.436 89.212,398.921C88.832,398.687 88.526,398.422 88.273,398.176C87.297,397.227 86.696,395.995 86.728,394.402C86.741,393.72 86.907,392.698 87.58,391.596C87.865,391.13 88.84,389.931 88.958,389.787C90.292,387.625 93.661,384.33 95.495,382.732C99.638,379.124 103.455,375.172 107.525,371.49C107.733,371.302 114.191,365.507 115.619,364.77C116.823,364.149 117.854,364.093 118.576,364.165C128.358,355.43 138.305,346.848 148.339,338.376C154.122,333.099 159.958,327.892 165.798,322.756L165.791,322.74C165.483,322.014 165.13,320.626 165.662,318.898C166.029,317.703 167.282,315.496 167.378,315.352C169.757,311.778 172.269,308.627 175.233,305.469C180.249,300.124 185.615,294.965 191.162,290.18C192.507,289.02 193.862,287.872 195.229,286.735C195.263,286.457 195.307,286.178 195.361,285.909C195.588,284.786 195.987,283.832 196.211,283.448C197.775,280.777 199.896,278.19 201.931,275.909C207.629,269.525 214.147,264.143 221.021,259.078C221.321,258.858 229.041,253.359 230.584,252.312C233.411,250.392 235.688,251.964 237.093,253.642C255.116,231.617 274.688,208.975 296.312,192.828C297.859,191.673 299.583,190.41 301.429,189.12L301.426,189.116C300.557,187.953 299.888,186.24 300.811,183.99C301.114,183.25 302.281,181.633 304.181,179.999C305.99,178.443 308.515,176.592 310.466,175.296C310.928,174.967 311.353,174.7 311.653,174.532C312.246,174.164 312.727,173.894 313.034,173.762C316.968,172.068 321.948,171.878 326.83,171.999ZM108.656,409.624L108.314,409.978C109.019,409.61 109.722,409.225 110.424,408.823L110.313,408.755C110.226,408.694 110.138,408.632 110.05,408.571L109.84,408.407L108.656,409.624Z" style="fill:rgb(230,213,184);"/>
                    <path d="M318.641,175.612C320.714,173.741 323.217,171.712 325.426,170.596C329.45,168.563 333.025,169.111 335.285,171.371C337.667,173.753 338.498,176.855 338.052,180.315C337.911,181.416 337.607,182.568 337.198,183.728C337.817,184.823 338.451,186.805 336.766,189.1C336.368,189.642 332.872,192.782 331.664,194.136L331.641,194.162C331.705,194.235 331.767,194.311 331.827,194.389C332.402,195.123 333.07,196.29 332.905,198.131C332.803,199.275 332.134,201.199 330.582,203.43C328.421,206.537 324.286,211.068 319.809,215.302C317.14,217.825 314.349,220.239 311.796,222.203C305.397,231.445 298.227,240.314 291.182,248.1C259.458,283.16 229.394,323 193.248,353.684C177.187,367.319 159.976,380.876 145.167,395.64C135.888,404.891 129.263,410.974 120.629,415.995C117.845,418.428 114.743,420.674 111.204,422.692C105.891,425.723 99.387,431.703 92.73,435.998C87.358,439.464 81.838,441.838 76.696,441.859C76.226,441.861 73.031,441.847 71.791,438.155C71.127,436.18 68.768,425.198 76.574,404.481C78.702,398.835 100.998,365.141 104.445,361.748C110.56,355.73 121.502,351.966 129.067,347.865C157.274,332.574 176.283,316.808 195.961,298.786C205.029,289.091 215.721,280.006 225.419,270.721C231.032,263.565 236.846,256.624 242.802,249.842C243.895,248.505 245.011,247.188 246.154,245.892C249.517,242.083 252.968,238.391 256.464,234.766C267.746,222.661 279.342,210.953 290.868,199.288C292.391,197.572 293.894,195.832 295.374,194.064C297.477,191.552 308.326,181.036 316.528,176.633C317.247,176.247 317.953,175.906 318.641,175.612ZM163.849,338.072C154.876,344.407 145.069,350.565 133.833,356.656C127.01,360.355 116.974,363.448 111.459,368.876C108.302,371.983 87.88,402.836 85.932,408.007C81.968,418.526 81.151,426.507 81.088,430.965C83.563,430.043 86.072,428.497 88.574,426.769C87.365,426.453 86.408,425.907 85.724,425.284C83.396,423.165 82.868,420.439 84.406,417.31C85.11,415.878 86.55,414.183 88.367,412.616C90.982,410.362 95.144,407.746 95.69,407.406L97.834,405.748C98.611,405.157 99.388,404.566 100.164,403.974L101.904,402.666C101.826,402.477 101.756,402.273 101.696,402.056C101.549,401.524 101.554,399.347 101.555,399.095C101.584,398.237 101.814,397.201 102.452,396.078C103.013,395.09 104.121,393.759 105.733,392.298C112.068,386.555 128.176,376.523 130.97,374.156C136.99,369.055 142.996,363.853 148.9,358.509C153.812,351.512 158.776,344.739 163.849,338.072ZM121.798,400.383C116.57,404.256 111.308,408.076 106.112,412.013C109.46,410.596 112.41,409.144 115.131,407.581C117.608,405.342 119.795,402.929 121.798,400.383ZM101.555,399.095L101.549,399.303C101.549,399.249 101.555,399.071 101.555,399.071L101.555,399.095ZM145.518,381.411L145.487,381.46L146.017,380.968L145.518,381.411ZM274.866,250.412C258.363,269.201 241.315,287.321 222.306,304.358C218.125,308.105 213.335,311.599 208.36,315.063C204.863,319.381 201.277,323.61 197.359,327.518C195.262,329.61 193.072,331.645 190.826,333.649C178.585,348.618 165.469,362.997 151.547,375.941C163.011,365.708 175.186,355.9 186.777,346.061C219.434,318.337 247.039,283.032 275.488,250.683L275.2,250.567L274.866,250.412ZM319.33,188.982C318.632,189.721 317.939,190.474 317.251,191.24L318.137,190.529L318.887,189.938L319.132,189.419L319.33,188.982Z" style="fill:rgb(230,213,184);"/>
                </g>
            </g>
        </g>
    </g>
</svg>
