<?xml version="1.0" encoding="UTF-8" standalone="no"?>
<!DOCTYPE svg PUBLIC "-//W3C//DTD SVG 1.1//EN" "http://www.w3.org/Graphics/SVG/1.1/DTD/svg11.dtd">
<svg width="100%" height="100%" viewBox="0 0 1028 1028" version="1.1" xmlns="http://www.w3.org/2000/svg" xmlns:xlink="http://www.w3.org/1999/xlink" xml:space="preserve" xmlns:serif="http://www.serif.com/" style="fill-rule:evenodd;clip-rule:evenodd;stroke-linejoin:round;stroke-miterlimit:2;">
    <rect id="Artboard1" x="0" y="0" width="1028" height="1028" style="fill:none;"/>
    <clipPath id="_clip1">
        <rect id="Artboard11" serif:id="Artboard1" x="0" y="0" width="1028" height="1028"/>
    </clipPath>
    <g clip-path="url(#_clip1)">
        <g id="noun_Radio_1456262" transform="matrix(10.4094,0,0,10.4094,520.128,628.782)">
            <g transform="matrix(1,0,0,1,-50,-62.5)">
                <g>
                    <g id="Layer1">
                        <rect x="9.608" y="35.279" width="81.272" height="50.598" style="fill:rgb(230,213,184);"/>
                    </g>
                    <clipPath id="_clip2">
                        <rect x="6.283" y="31.588" width="87.6" height="79.496"/>
                    </clipPath>
                    <g clip-path="url(#_clip2)">
                        <path d="M93.8,40.6C93.8,35.663 89.737,31.6 84.8,31.6L26.9,31.6L69.5,14.1C70.313,13.827 70.864,13.061 70.864,12.204C70.864,11.107 69.961,10.204 68.864,10.204C68.565,10.204 68.27,10.271 68,10.4L16.4,31.6L15.2,31.6C10.263,31.6 6.2,35.663 6.2,40.6L6.2,80.7C6.2,85.637 10.263,89.7 15.2,89.7L84.8,89.7C89.737,89.7 93.8,85.637 93.8,80.7L93.8,40.6ZM89.8,80.8C89.8,83.543 87.543,85.8 84.8,85.8L15.2,85.8C12.457,85.8 10.2,83.543 10.2,80.8L10.2,40.6C10.2,37.857 12.457,35.6 15.2,35.6L84.8,35.6C87.543,35.6 89.8,37.857 89.8,40.6L89.8,80.8Z" style="fill-rule:nonzero;stroke:black;stroke-width:1.5px;"/>
                    </g>
                    <ellipse cx="37.003" cy="61.249" rx="13.683" ry="12.672" style="fill:rgb(73,84,100);stroke:black;stroke-width:1.5px;stroke-linecap:round;stroke-miterlimit:1.5;"/>
                    <path d="M36.5,42C26.242,42 17.8,50.442 17.8,60.7C17.8,70.959 26.242,79.4 36.5,79.4C46.759,79.4 55.2,70.959 55.2,60.7C55.2,60.667 55.2,60.633 55.2,60.6C55.145,50.379 46.721,42 36.5,42ZM36.5,75.3C28.436,75.3 21.8,68.664 21.8,60.6C21.8,52.536 28.436,45.9 36.5,45.9C44.564,45.9 51.2,52.536 51.2,60.6C51.2,68.664 44.564,75.3 36.5,75.3Z" style="fill-rule:nonzero;stroke:black;stroke-width:4px;"/>
                    <path d="M79.8,58.6L65.8,58.6C64.703,58.6 63.8,59.503 63.8,60.6C63.8,61.697 64.703,62.6 65.8,62.6L79.8,62.6C80.897,62.6 81.8,61.697 81.8,60.6C81.8,59.503 80.897,58.6 79.8,58.6Z" style="fill-rule:nonzero;stroke:black;stroke-width:1.5px;"/>
                    <path d="M79.8,47.6L65.8,47.6C64.703,47.6 63.8,48.503 63.8,49.6C63.8,50.697 64.703,51.6 65.8,51.6L79.8,51.6C80.897,51.6 81.8,50.697 81.8,49.6C81.8,48.503 80.897,47.6 79.8,47.6Z" style="fill-rule:nonzero;stroke:black;stroke-width:1.5px;"/>
                    <path d="M79.8,69.6L65.8,69.6C64.703,69.6 63.8,70.503 63.8,71.6C63.8,72.697 64.703,73.6 65.8,73.6L79.8,73.6C80.897,73.6 81.8,72.697 81.8,71.6C81.8,70.503 80.897,69.6 79.8,69.6Z" style="fill-rule:nonzero;stroke:black;stroke-width:1.5px;"/>
                </g>
            </g>
        </g>
        <g id="noun_dart_3603242" transform="matrix(1.34657,0.00891464,-0.00891464,1.34657,688.615,410.126)">
            <g transform="matrix(1,0,0,1,-256,-320)">
                <g>
                    <path d="M295.022,197.789L295.895,196.876C300.924,191.605 306.551,185.91 311.891,180.868C312.057,180.712 320.111,173.263 321.761,171.899C326.06,168.345 329.842,173.564 329.976,173.966C330.369,175.146 330.477,176.54 330.138,178.112C329.743,179.944 328.559,182.316 326.742,184.834C322.254,191.054 313.578,199.016 311.616,201.343C295.889,220.003 277.814,237.219 260.397,254.377C258.467,256.278 255.379,256.29 253.435,254.429C251.277,257.021 248.535,260.436 245.998,262.934C244.585,264.325 243.173,265.454 241.884,266.247C243.773,266.526 244.727,267.524 245.228,268.139C246.402,269.582 246.938,271.424 245.859,273.671C245.575,274.262 244.925,275.216 243.736,276.131C243.068,276.645 241.995,277.3 240.94,277.949C240.453,278.553 239.952,279.2 239.531,279.791C236.983,283.372 234.432,287.486 233.752,288.449C229.966,293.81 213.059,313.453 203.253,326.899C200.198,331.088 197.393,336.124 197.104,336.647C196.876,339.194 194.732,341.194 192.125,341.194C189.365,341.194 187.125,338.954 187.125,336.194C187.125,334.489 188.456,330.919 191.327,326.53C196.143,319.167 205.225,307.905 212.932,298.462C204.089,305.031 195.191,311.583 186.049,317.595C185.457,317.985 175.031,324.58 172.901,325.799C168.703,328.201 165.741,324.201 165.618,323.965C164.719,322.249 164.534,319.439 166.444,316.286C169.439,311.339 179.222,303.053 180.567,301.707C190.479,291.788 200.494,281.739 210.786,272.12C211.632,271.237 212.475,270.352 213.295,269.437C215.974,266.45 223.28,256.658 229.605,251.036C233.415,247.651 237.229,245.819 239.931,245.819L240.016,245.822C250.932,233.719 261.018,221.863 265.242,217.138C268.401,213.604 282.919,197.825 286.275,195.152C289.745,192.387 292.816,194.453 293.441,195.031C294.018,195.564 294.763,196.478 295.022,197.789ZM234.529,266.453C232.244,268.84 230.004,271.122 227.86,273.236C220.154,280.831 213.379,286.217 209.677,287.426C209.451,287.499 209.233,287.559 209.023,287.602C207.148,289.416 205.281,291.239 203.421,293.069C208.561,289.268 213.672,285.436 218.793,281.68C223.148,278.485 227.716,275.474 231.877,272.031C232.324,271.662 233.151,271.09 234.044,270.5C234.491,269.952 234.918,269.459 235.315,269.043C235.88,268.451 236.451,267.969 237.009,267.584C236.082,267.444 235.424,267.064 235,266.79C234.837,266.684 234.679,266.573 234.529,266.453Z" style="fill:rgb(153,168,178);"/>
                    <path d="M314.639,180.171C315.87,178.475 317.548,176.164 319.346,174.001C321.963,170.851 324.859,168.036 327.193,166.79C330.697,164.92 333.732,165.425 335.979,167.537C336.898,168.4 337.723,169.795 337.874,171.735C338.001,173.365 337.405,176.053 337.045,177.581C337.281,177.992 337.451,178.433 337.566,178.892C337.781,179.366 337.946,179.882 338.047,180.438L338.117,180.503C339.252,181.638 340.076,183.353 340.24,185.457C340.47,188.401 339.237,192.271 337.714,194.184C336.281,195.983 334.483,196.702 332.912,196.757C332.379,196.776 331.834,196.732 331.289,196.599C328.947,202.457 323.087,209.381 315.939,216.276C313.645,218.488 311.221,220.71 308.77,222.906C292.184,243.107 273.882,261.813 255.065,280.03C254.731,280.486 254.481,280.81 254.348,280.954C245.89,290.127 236.96,298.864 228.123,307.685C227.202,308.605 224.285,310.869 221.789,313.096C221.02,313.781 220.078,314.763 219.604,315.267C219.251,316.077 218.825,317.028 218.707,317.184C218.067,318.028 217.368,318.535 216.685,318.826C216.918,319.958 216.746,321.376 215.547,322.974C213.844,325.246 211.18,327.437 208.165,329.475C204.516,331.94 200.309,334.217 197.498,336.46C195.162,338.324 192.768,340.467 190.427,342.68C188.338,345.461 186.355,348.343 184.164,350.502C183.695,350.964 183.149,351.354 182.527,351.648C182.489,352.199 182.522,352.767 182.522,353.28L182.518,353.357L182.522,353.539C182.522,354.707 181.295,355.434 179.701,355.74C179.553,356.271 179.362,356.684 179.196,356.971C178.391,358.358 177.249,359.075 176.009,359.392C175.001,359.65 173.771,359.692 172.37,358.987C170.334,357.96 168.568,355.64 167.4,352.664C166.856,351.278 166.029,349.035 165.661,348.029L164.211,346.982L163.084,346.166C162.77,346.015 162.455,345.861 162.148,345.694C160.553,344.831 159.05,343.844 157.877,342.632C157.267,342.002 156.822,341.298 156.54,340.536C155.963,339.836 155.512,339.153 155.192,338.512C153.647,335.422 155.166,333.478 155.989,332.607C156.743,331.809 157.946,330.927 159.794,331.009L160.07,330.71C160.464,329.69 161.116,328.691 162.069,327.722C172.049,317.579 187.078,303.126 199.965,293.239C219.486,272.788 238.37,251.807 259.829,233.466C277.068,218.732 293.689,201.816 309.37,186.044C309.613,185.523 309.943,184.972 310.359,184.439C311.025,183.588 312.167,182.514 312.356,182.338C312.731,181.969 313.553,181.179 314.639,180.171ZM283.942,225.181C278.151,230.644 272.275,235.984 266.326,241.068C264.326,242.778 262.348,244.51 260.396,246.264C262.312,246.557 263.287,247.574 263.863,248.363C263.989,248.536 264.106,248.715 264.21,248.9L266.113,247.111C267.436,245.541 268.494,244.336 268.606,244.214C269.244,243.515 269.897,242.828 270.561,242.152C270.834,241.723 271.059,241.387 271.221,241.174C275.337,235.755 279.612,230.446 283.942,225.181Z" style="fill:rgb(153,168,178);"/>
                    <path d="M137.233,352.053C137.894,351.413 138.534,350.78 139.15,350.154C140.443,348.838 142.696,347.868 145.713,348.826C149.006,349.873 155.156,354.789 156.218,355.851C158.807,358.441 160.119,360.921 160.639,363.22L161.841,364.316L162.074,364.53C163.768,365.715 165.491,366.863 167.193,368.079C167.916,368.596 169.728,369.044 170.863,369.443C172.217,369.918 173.187,370.447 173.53,370.703C175.673,372.306 175.706,374.287 175.55,375.453C175.441,376.269 174.797,379.87 170.149,379.87C168.757,379.87 166.795,379.376 164.509,378.351C163.931,378.47 163.299,378.498 162.612,378.416C161.481,378.281 159.678,377.323 158.647,376.711C157.385,377.782 155.354,379.546 153.845,381.055C149.594,385.303 145.035,390.169 143.04,391.673C142.918,391.847 141.192,394.316 140.455,395.421L140.273,395.686C140.962,395.936 141.51,396.314 141.937,396.696C142.478,397.179 145.103,400.309 142.321,403.909C141.152,405.421 136.345,410.34 132.974,413.727C132.681,414.251 132.261,414.767 131.677,415.252C131.334,415.537 130.511,416.263 129.528,417.14C128.122,418.398 126.112,421.755 124.763,423.242C123.653,424.467 122.534,425.108 121.793,425.368C119.814,426.066 118.17,425.635 116.83,424.634C116.252,424.202 115.497,423.501 115.032,422.289C111.142,424.078 107.221,425.796 103.224,427.242C102.819,427.389 94.727,430.449 92.534,431.064C92.389,431.319 92.253,431.541 92.145,431.695C91.365,432.807 90.452,433.438 89.737,433.766C88.503,434.332 87.292,434.382 86.129,434.06C85.063,433.764 83.763,433.126 82.811,431.364C82.615,431.002 82.372,430.42 82.269,429.674C81.313,429.566 80.429,429.194 79.629,428.52C79.068,428.047 77.795,426.951 77.795,424.412C77.795,421.435 78.789,418.045 80.333,414.672C82.209,410.571 84.883,406.441 86.585,403.316C91.976,393.424 95.936,389.203 100.445,385.967L102.037,384.209C110.648,374.718 120.704,364.641 131.599,357.188C131.633,354.864 133.45,353.314 134.236,352.874C135.04,352.425 136.041,352.103 137.233,352.053Z" style="fill:rgb(31,111,139);"/>
                    <path d="M344.645,99.504C344.822,99.291 346.451,97.336 347.091,96.703C348.073,95.729 349.059,95.277 349.69,95.091C351.634,94.517 353.199,95.022 354.444,96.049C355.211,96.682 356.358,97.854 356.358,100.265C356.358,103.835 355.998,107.291 355.314,110.628C355.359,110.942 355.373,111.263 355.359,111.592C355.327,112.373 355.129,113.346 354.409,114.335C349.819,130.515 337.564,143.588 322.392,152.55C318.16,155.049 314.688,158.992 311.293,163.041C307.34,167.753 303.515,172.634 299.209,176.315C295.41,179.562 289.905,186.461 284.106,191.46C279.201,195.688 273.963,198.5 269.26,198.5C266.501,198.5 264.26,196.259 264.26,193.5C264.26,193.22 264.283,192.946 264.329,192.679C263.342,192.197 262.038,191.142 261.772,188.818C261.767,188.774 261.737,188.52 261.737,188.005C261.737,187.483 261.772,186.962 261.839,186.441C261.913,185.304 262.037,183.836 262.201,183.16C262.268,182.882 262.35,182.601 262.448,182.318C262.367,182.13 262.324,181.926 262.324,181.708L262.327,181.551L262.324,181.482L262.324,175.575C262.324,171.314 261.834,166.298 263.527,162.292C265.912,156.651 269.99,151.026 273.869,145.804L274.67,144.661L275.604,143.359C275.708,142.997 275.815,142.671 275.919,142.403C276.444,141.059 277.184,140.217 277.682,139.791C278.074,139.457 278.469,139.195 278.866,139C279.284,138.41 280.979,135.99 281.357,135.465C284.144,131.597 288.635,134.394 288.692,134.442C289.03,134.723 289.403,135.095 289.726,135.563C290.832,134.469 291.867,133.358 292.776,132.223C293.105,131.712 293.432,131.198 293.756,130.681C294.287,129.835 295.678,127.648 295.912,127.369C298.448,124.353 301.507,125.827 302.109,126.146C302.327,126.262 304.881,127.724 304.819,130.53C305.181,130.59 305.508,130.688 305.797,130.799C306.668,130.149 307.665,129.413 308.175,128.969C310.424,127.007 312.702,125.083 315.04,123.214C322.143,117.534 329.409,112.077 336.52,106.403C339.289,104.194 341.796,101.615 344.645,99.504ZM278.704,182.734L278.623,182.961L278.662,182.926L278.853,182.751L278.764,182.742L278.704,182.734Z" style="fill:rgb(31,111,139);"/>
                    <path d="M345.511,39.418C346.13,38.479 346.806,37.943 347.202,37.686C349.61,36.126 351.635,36.745 353.178,38.013L353.209,38.039C353.82,37.937 354.478,38.026 355.136,38.254C357.562,37.407 359.989,38.468 360.129,43.977L360.136,44.169L360.136,46.924C360.98,47.755 361.767,49.023 362.105,50.819C362.674,53.84 362.059,60.383 362.059,61.2L362.059,61.61C363.902,69.675 364.284,80.071 364.745,86.79C364.794,87.509 365.221,92.311 365.008,94.566C364.876,95.955 364.432,97.014 363.962,97.756C364.465,99.517 364.968,101.272 365.469,103.02C366.176,105.494 368.262,119.839 368.241,123.379C368.23,125.337 367.509,126.625 366.826,127.406C367.382,128.024 368.125,128.816 368.769,129.401C371.418,131.805 374.609,134.203 375.946,135.328C383.879,142.002 392.042,143.56 400.803,144.275C407.383,144.812 414.284,144.876 421.657,145.803C426.514,146.414 431.565,147.939 436.491,149.473C437.032,149.325 437.479,149.258 437.801,149.236C439.894,149.091 441.173,150.007 441.917,150.767C442.067,150.921 442.219,151.088 442.364,151.269L443.037,151.466C448.741,153.097 456.866,152.448 462.354,150.402C464.375,149.648 466.699,149.375 468.788,148.784C469.422,148.605 470.799,148.475 471.884,148.397C472.376,148.331 472.875,148.297 473.381,148.297C485.456,148.297 478.15,158.152 473.724,158.298L472.921,158.347C471.967,158.545 471.182,159.337 470.341,160.128C468.485,161.873 466.774,164.128 465.06,166.111C461.498,170.235 457.569,173.015 453.644,172.93L453.229,172.908C451.006,175.314 448.936,177.544 447.101,179.204C446.088,180.121 441.978,183.47 438.74,185.098C436.458,186.245 434.306,186.509 432.771,186.261L431.643,187.127L428.921,189.203C423.595,194.164 418.484,199.252 416.657,200.824C414.42,202.748 412.008,204.504 409.595,206.233C407.059,208.702 404.404,210.835 401.676,212.121C400.03,212.897 398.695,212.89 397.656,212.554C397.292,212.81 396.927,213.081 396.64,213.321C394.534,215.09 392.459,217.019 390.963,217.873C380.94,223.601 372.474,231.588 363.674,238.967C363.499,240.005 363.006,241.085 361.838,242C361.64,242.156 360.774,243.069 358.704,243.069L358.633,243.069C357.262,244.144 355.876,245.191 354.467,246.202C347.518,251.183 337.601,254.836 329.318,251.264C327.108,250.311 325.087,248.859 322.899,247.811C319.63,247.394 317.209,246.319 316.146,245.255C316.075,245.184 316.007,245.113 315.944,245.042C315.731,245.107 315.533,245.143 315.358,245.143C310.462,245.143 310.142,240.77 310.124,240.314C310.092,239.497 310.127,237.028 312.721,235.711L312.755,235.676C315.595,232.877 318.129,229.988 320.73,227.087C321.431,225.392 322.528,223.638 323.976,221.914C328.159,216.934 335.527,211.754 338.199,208.628C344.439,201.328 348.484,194.764 350.949,187.578C350.032,187.168 349.097,186.372 348.478,184.86C348.37,184.597 347.995,182.66 347.81,181.919C347.463,180.531 347.552,179.046 347.095,177.674C346.283,175.238 345.707,172.719 344.946,170.266C342.7,169.138 340.336,167.679 338.127,166.227C337.446,166.28 336.712,166.262 335.928,166.159C330.844,165.49 321.405,160.267 319.137,159.358C318.151,158.962 311.737,155.967 310.493,155.358C305.139,152.734 310.179,146.329 310.329,146.257L310.749,146.065C307.853,146.133 305.068,146.091 302.488,145.889C294.749,151.084 287.675,157.882 283.868,162.965C281.062,166.713 278.279,170.452 276.372,174.776C275.615,176.492 275.25,178.216 274.667,179.972C274.354,180.914 273.544,183.322 273.324,183.642C271.717,185.979 269.604,185.955 268.419,185.774C267.693,185.663 264.147,185.098 264.147,180.666C264.147,169.191 267.701,158.838 273.171,149.395C272.842,149.094 272.591,148.781 272.397,148.513C271.515,147.297 270.669,145.271 272.228,142.725C272.531,142.23 273.268,141.356 274.407,140.369C275.307,139.588 276.601,138.558 277.856,137.453C277.403,136.701 277.142,135.82 277.142,134.879C277.142,131.159 278.484,127.261 280.516,123.459C282.947,118.909 286.398,114.464 288.459,110.661C297.351,94.256 313.472,70.235 326.711,56.875C332.564,50.969 339.121,45.771 345.051,39.801C345.138,39.713 345.31,39.573 345.511,39.418ZM353.163,205.488C352.39,206.65 351.57,207.818 350.699,208.994L350.723,208.972L353.214,206.693C353.193,206.291 353.177,205.889 353.163,205.488ZM401.864,154.588L402.176,154.698C404.063,155.055 405.938,155.463 407.799,155.975C408.037,155.667 408.26,155.393 408.454,155.173C408.581,155.03 408.706,154.897 408.831,154.775C406.193,154.628 403.612,154.502 401.08,154.318L401.864,154.588ZM329.673,130.862C328.989,131.058 327.204,131.594 325.53,132.261C325.636,132.665 325.692,133.089 325.692,133.525C325.692,134.099 325.596,134.649 325.417,135.162L328.61,134.929C329.244,134.887 329.877,134.845 330.511,134.804L332.115,134.709L331.929,134.353C331.21,133.008 330.575,131.604 329.673,130.862ZM349.086,101.431C346.741,105.703 344.623,109.371 343.73,110.639C341.815,113.358 339.321,113.242 338.818,113.2C338.304,113.157 333.566,111.951 334.311,107.066C334.335,106.914 334.368,106.723 334.411,106.497C331.54,111.385 329.111,115.724 327.836,117.812C327.588,118.218 326.79,119.713 325.763,121.511C329.14,120.616 331.973,120.752 333.664,121.598C335.912,122.722 338.038,125.029 339.767,127.903C339.931,128.176 340.092,128.454 340.249,128.737C340.766,128.836 341.338,129.038 341.945,129.407C342.083,129.492 342.359,129.745 342.682,130.066C342.227,126.135 342.389,122.471 343.447,119.425C344.204,117.244 345.726,116.454 347.14,116.149C347.821,116.001 349.207,115.807 350.626,116.61C350.391,114.103 350.312,111.754 350.391,109.642C349.99,106.96 349.532,104.212 349.086,101.431ZM310.363,93.872C308.036,97.36 305.813,100.841 303.754,104.201L304.389,103.438C305.586,101.591 306.726,99.929 307.438,98.743L310.363,93.872Z" style="fill:rgb(31,111,139);"/>
                    <path d="M325.192,109.704C326.032,102.607 327.655,94.784 328.224,92.376C328.488,91.259 328.776,90.633 328.832,90.524C329.82,88.61 331.274,88.186 331.888,88.008C333.201,87.627 334.407,87.783 335.518,88.338C337.321,89.24 339.072,91.182 340.328,93.919C341.965,97.486 342.93,102.795 343.857,104.994C352.352,125.158 359.649,137.094 359.649,159.62C359.649,164.223 357.964,177.524 357.17,188.436C375.17,178.953 396.989,169.013 408.755,162.395C408.233,162.218 407.656,161.98 407.026,161.663C405.836,161.064 397.876,157.283 396.399,156.483C394.284,155.336 393.866,153.708 393.798,153.503C393.369,152.194 393.523,151.067 393.891,150.125C394.304,149.066 395.039,148.09 396.357,147.447C398.378,146.46 402.29,146.115 406.673,146.847C412.243,147.777 418.614,150.22 421.771,152.96C423.86,154.775 424.898,156.863 425.085,158.823C425.301,161.084 424.617,163.586 421.831,165.843C415.918,170.634 396.161,179.878 376.736,189.605C377.111,190.354 377.351,191.304 377.259,192.527C377.183,193.546 376.81,194.666 375.925,195.689C375.586,196.081 374.835,196.615 374.213,197.023C374.546,197.746 374.682,198.519 374.646,199.335C374.607,200.21 374.361,201.323 373.424,202.428C373.111,202.797 372.43,203.441 371.329,204.011C370.195,204.599 367.771,205.508 366.754,206.077C366.455,206.244 366.159,206.418 365.866,206.596C363.985,208.253 362.168,210.003 360.657,211.037C360.48,211.231 358.79,213.073 358.12,213.66C357.068,214.578 356.034,214.969 355.346,215.114C354.139,215.368 353.087,215.225 352.172,214.808C346.841,217.676 341.519,220.51 336.516,223.962C336.123,224.381 335.198,225.341 334.605,225.767C333.645,226.454 332.631,226.826 331.718,226.946C329.942,227.18 328.243,226.735 326.783,225.129C325.639,223.871 324.576,221.663 326.172,218.722C326.312,218.464 326.515,218.158 326.776,217.813C326.595,217.63 326.44,217.444 326.305,217.263C325.533,216.227 325.185,215.043 325.328,213.695C325.53,211.799 326.519,209.536 328.591,207.195C331.638,203.754 337.547,199.553 345.074,195.124C345.65,194.785 346.236,194.444 346.833,194.102L346.871,193.086C347.373,181.794 349.649,164.904 349.649,159.62C349.649,142.818 345.087,132.406 339.205,119.275C338.805,120.61 338.232,121.975 337.531,123.333C336.013,126.277 333.871,129.237 332.665,131.642C332.006,132.957 331.144,136.152 330.583,137.669C330.182,138.751 329.735,139.484 329.481,139.816C327.828,141.971 325.817,141.972 324.605,141.772C324.178,141.701 323.027,141.467 322.026,140.603C321.139,140.905 320.303,140.874 319.73,140.806C319.021,140.721 315.277,140.189 315.277,135.568C315.277,131.858 316.931,128.39 319.287,125.066C320.138,122.697 320.811,120.167 321.364,117.943L321.403,117.765C321.206,117.131 320.926,115.987 320.926,114.65C320.926,112.139 322.78,110.059 325.192,109.704Z" style="fill:rgb(31,111,139);"/>
                    <path d="M160.427,349.676C158.328,348.284 156.551,346.635 154.369,345.198C153.573,344.673 151.742,343.478 150.977,342.382C150.225,341.302 149.904,340.152 149.904,339.041C149.904,337.507 150.47,336.578 150.908,335.991C152.08,334.418 153.668,333.696 155.746,334.031C156.25,334.112 158.857,335.764 158.857,335.764C158.857,335.764 157.802,335.024 157.402,334.875C158.37,335.236 159.365,335.886 160.233,336.44C160.999,336.928 161.826,337.464 162.562,337.983C163.697,338.784 164.902,339.883 165.885,340.866C166.269,341.251 166.645,341.652 167.015,342.064L167.218,342.228C167.659,342.614 167.645,342.602 168.067,342.99L168.751,343.647C170.31,344.33 171.454,345.787 171.696,347.531C172.644,349.405 172.335,351.754 170.769,353.32C168.818,355.271 165.649,355.271 163.698,353.32C162.583,352.205 161.521,350.916 160.427,349.676Z" style="fill:rgb(153,168,178);"/>
                    <path d="M496.824,143.164L393.957,137.275C383.64,136.689 375.311,128.36 374.725,118.043L368.836,15.176C368.596,10.966 365.066,7.632 360.849,7.632C358.278,7.632 355.859,8.871 354.357,10.957L256.836,146.363C242.644,165.862 243.653,192.76 259.266,211.141L82.943,382.354C82.004,383.266 81.304,384.394 80.902,385.639L64.663,436.022L9.976,490.71C8.476,492.21 7.633,494.246 7.633,496.367C7.633,500.756 11.244,504.367 15.633,504.367C17.754,504.367 19.79,503.524 21.29,502.024L75.978,447.337L126.361,431.1C127.616,430.695 128.752,429.986 129.667,429.037L300.518,251.786C318.894,267.803 346.109,269.055 365.878,254.793L501.036,157.647C503.125,156.145 504.367,153.724 504.367,151.151C504.367,146.935 501.033,143.405 496.824,143.164ZM174.642,359.321L152.467,337.147L318.287,176.133C320.499,173.983 323.466,172.779 326.551,172.779C333.056,172.779 338.409,178.132 338.409,184.637C338.409,187.706 337.217,190.659 335.087,192.868L174.642,359.321ZM119.542,416.485L84.088,427.912L95.52,392.443L140.986,348.3L163.535,370.849L119.542,416.485ZM356.542,241.801C343.017,251.554 324.461,250.913 311.642,240.248L346.608,203.972C351.624,198.78 354.43,191.836 354.43,184.617C354.43,169.335 341.855,156.76 326.573,156.76C319.319,156.76 312.344,159.593 307.145,164.653L270.792,199.953C260.582,187.144 260.183,168.958 269.822,155.714L354.151,38.62L358.751,118.957C359.799,137.353 374.648,152.202 393.044,153.25L473.344,157.85L356.542,241.801Z" style="fill-rule:nonzero;stroke:black;stroke-width:1.5px;"/>
                </g>
            </g>
        </g>
    </g>
</svg>
